# xmcd
#
# Track frame offsets:
#	150
#	10252
#	20923
#	34669
#	45401
#	57606
#	68429
#	81448
#	94794
#	107262
#	119394
#	130365
#	145074
#	160482
#
# Disc length: 2310 seconds
#
# Revision: 1
# Processed by: cddbd v1.5.2PL0 Copyright (c) Steve Scherf et al.
# Submitted via: audiograbber 1.83.01
#
DISCID=ba09040e
DTITLE=George Jones And Tammy Wynette - The Very Best Of
DYEAR=1900
DGENRE=
TTITLE0=Something To Brag About
TTITLE1=Take Me
TTITLE2=Golden Ring
TTITLE3=Near You
TTITLE4=We Could
TTITLE5=We Loved It Anyway
TTITLE6=Southern California
TTITLE7=We're Gonna Hold On
TTITLE8=It Sure Was Good
TTITLE9=Two Story House
TTITLE10=After The Fire Is Gone
TTITLE11=When I Stop Dancing
TTITLE12=The World Needs A Melody
TTITLE13=Old Fashioned Singing
EXTD=
EXTT0=
EXTT1=
EXTT2=
EXTT3=
EXTT4=
EXTT5=
EXTT6=
EXTT7=
EXTT8=
EXTT9=
EXTT10=
EXTT11=
EXTT12=
EXTT13=
PLAYORDER=
